<?xml version="1.0" encoding="us-ascii" standalone="no"?><svg xmlns="http://www.w3.org/2000/svg" xmlns:xlink="http://www.w3.org/1999/xlink" contentStyleType="text/css" height="1291px" preserveAspectRatio="none" style="width:1260px;height:1291px;background:#FFFFFF;" version="1.1" viewBox="0 0 1260 1291" width="1260px" zoomAndPan="magnify"><defs/><g><rect fill="#FFFFFF" height="1057.7188" style="stroke:#FFFFFF;stroke-width:1.0;" width="10" x="86.5" y="50.2969"/><line style="stroke:#181818;stroke-width:1.0;" x1="86.5" x2="86.5" y1="50.2969" y2="1108.0156"/><line style="stroke:#181818;stroke-width:1.0;" x1="96.5" x2="96.5" y1="50.2969" y2="1108.0156"/><line style="stroke:#181818;stroke-width:1.0;" x1="86.5" x2="96.5" y1="50.2969" y2="50.2969"/><rect fill="#FFFFFF" height="85.3984" style="stroke:#FFFFFF;stroke-width:1.0;" width="10" x="86.5" y="1148.8203"/><line style="stroke:#181818;stroke-width:1.0;" x1="86.5" x2="86.5" y1="1148.8203" y2="1234.2188"/><line style="stroke:#181818;stroke-width:1.0;" x1="96.5" x2="96.5" y1="1148.8203" y2="1234.2188"/><line style="stroke:#181818;stroke-width:1.0;" x1="86.5" x2="96.5" y1="1234.2188" y2="1234.2188"/><rect fill="#FFFFFF" height="1028.5859" style="stroke:#181818;stroke-width:1.0;" width="10" x="291.5" y="71.4297"/><rect fill="#FFFFFF" height="64.2656" style="stroke:#181818;stroke-width:1.0;" width="10" x="291.5" y="1169.9531"/><rect fill="#FFFFFF" height="373.3984" style="stroke:#181818;stroke-width:1.0;" width="10" x="560.5" y="174.9609"/><rect fill="#FFFFFF" height="106.3984" style="stroke:#181818;stroke-width:1.0;" width="10" x="560.5" y="876.9531"/><rect fill="#FFFFFF" height="166.2305" style="stroke:#181818;stroke-width:1.0;" width="10" x="800.5" y="229.793"/><rect fill="#FFFFFF" height="30" style="stroke:#181818;stroke-width:1.0;" width="10" x="973.5" y="319.3242"/><rect fill="none" height="419.6641" style="stroke:#000000;stroke-width:1.5;" width="1056.5" x="198" y="136.6953"/><rect fill="none" height="97.3984" style="stroke:#000000;stroke-width:1.5;" width="490" x="754.5" y="270.4922"/><rect fill="none" height="124.3359" style="stroke:#000000;stroke-width:1.5;" width="523" x="522.5" y="411.0234"/><rect fill="none" height="143.5313" style="stroke:#000000;stroke-width:1.5;" width="278" x="258.5" y="681.1563"/><rect fill="none" height="152.6641" style="stroke:#000000;stroke-width:1.5;" width="787" x="258.5" y="838.6875"/><line style="stroke:#181818;stroke-width:0.5;stroke-dasharray:5.0,5.0;" x1="91" x2="91" y1="40.2969" y2="1108.0156"/><line style="stroke:#A80036;stroke-width:1.0;stroke-dasharray:1.0,4.0;" x1="91" x2="91" y1="1108.0156" y2="1148.8203"/><line style="stroke:#181818;stroke-width:0.5;stroke-dasharray:5.0,5.0;" x1="91" x2="91" y1="1148.8203" y2="1252.2188"/><line style="stroke:#181818;stroke-width:0.5;stroke-dasharray:5.0,5.0;" x1="296.5" x2="296.5" y1="40.2969" y2="1108.0156"/><line style="stroke:#A80036;stroke-width:1.0;stroke-dasharray:1.0,4.0;" x1="296.5" x2="296.5" y1="1108.0156" y2="1148.8203"/><line style="stroke:#181818;stroke-width:0.5;stroke-dasharray:5.0,5.0;" x1="296.5" x2="296.5" y1="1148.8203" y2="1252.2188"/><line style="stroke:#181818;stroke-width:0.5;stroke-dasharray:5.0,5.0;" x1="565.5" x2="565.5" y1="40.2969" y2="1108.0156"/><line style="stroke:#A80036;stroke-width:1.0;stroke-dasharray:1.0,4.0;" x1="565.5" x2="565.5" y1="1108.0156" y2="1148.8203"/><line style="stroke:#181818;stroke-width:0.5;stroke-dasharray:5.0,5.0;" x1="565.5" x2="565.5" y1="1148.8203" y2="1252.2188"/><line style="stroke:#181818;stroke-width:0.5;stroke-dasharray:5.0,5.0;" x1="805.5" x2="805.5" y1="40.2969" y2="1108.0156"/><line style="stroke:#A80036;stroke-width:1.0;stroke-dasharray:1.0,4.0;" x1="805.5" x2="805.5" y1="1108.0156" y2="1148.8203"/><line style="stroke:#181818;stroke-width:0.5;stroke-dasharray:5.0,5.0;" x1="805.5" x2="805.5" y1="1148.8203" y2="1252.2188"/><line style="stroke:#181818;stroke-width:0.5;stroke-dasharray:5.0,5.0;" x1="978" x2="978" y1="40.2969" y2="1108.0156"/><line style="stroke:#A80036;stroke-width:1.0;stroke-dasharray:1.0,4.0;" x1="978" x2="978" y1="1108.0156" y2="1148.8203"/><line style="stroke:#181818;stroke-width:0.5;stroke-dasharray:5.0,5.0;" x1="978" x2="978" y1="1148.8203" y2="1252.2188"/><rect fill="#E2E2F0" height="30.2969" rx="2.5" ry="2.5" style="stroke:#181818;stroke-width:0.5;" width="173" x="5" y="9"/><text fill="#000000" font-family="sans-serif" font-size="14" lengthAdjust="spacing" textLength="159" x="12" y="28.9951">main / sysrepo_plugind</text><rect fill="#E2E2F0" height="30.2969" rx="2.5" ry="2.5" style="stroke:#181818;stroke-width:0.5;" width="173" x="5" y="1251.2188"/><text fill="#000000" font-family="sans-serif" font-size="14" lengthAdjust="spacing" textLength="159" x="12" y="1271.2139">main / sysrepo_plugind</text><rect fill="#E2E2F0" height="30.2969" rx="2.5" ry="2.5" style="stroke:#181818;stroke-width:0.5;" width="56" x="268.5" y="9"/><text fill="#000000" font-family="sans-serif" font-size="14" lengthAdjust="spacing" textLength="42" x="275.5" y="28.9951">plugin</text><rect fill="#E2E2F0" height="30.2969" rx="2.5" ry="2.5" style="stroke:#181818;stroke-width:0.5;" width="56" x="268.5" y="1251.2188"/><text fill="#000000" font-family="sans-serif" font-size="14" lengthAdjust="spacing" textLength="42" x="275.5" y="1271.2139">plugin</text><rect fill="#E2E2F0" height="30.2969" rx="2.5" ry="2.5" style="stroke:#181818;stroke-width:0.5;" width="66" x="532.5" y="9"/><text fill="#000000" font-family="sans-serif" font-size="14" lengthAdjust="spacing" textLength="52" x="539.5" y="28.9951">module</text><rect fill="#E2E2F0" height="30.2969" rx="2.5" ry="2.5" style="stroke:#181818;stroke-width:0.5;" width="66" x="532.5" y="1251.2188"/><text fill="#000000" font-family="sans-serif" font-size="14" lengthAdjust="spacing" textLength="52" x="539.5" y="1271.2139">module</text><rect fill="#E2E2F0" height="30.2969" rx="2.5" ry="2.5" style="stroke:#181818;stroke-width:0.5;" width="82" x="764.5" y="9"/><text fill="#000000" font-family="sans-serif" font-size="14" lengthAdjust="spacing" textLength="68" x="771.5" y="28.9951">root node</text><rect fill="#E2E2F0" height="30.2969" rx="2.5" ry="2.5" style="stroke:#181818;stroke-width:0.5;" width="82" x="764.5" y="1251.2188"/><text fill="#000000" font-family="sans-serif" font-size="14" lengthAdjust="spacing" textLength="68" x="771.5" y="1271.2139">root node</text><rect fill="#E2E2F0" height="30.2969" style="stroke:#181818;stroke-width:0.5;" width="69" x="946" y="5"/><rect fill="#E2E2F0" height="30.2969" style="stroke:#181818;stroke-width:0.5;" width="69" x="942" y="9"/><text fill="#000000" font-family="sans-serif" font-size="14" lengthAdjust="spacing" textLength="55" x="949" y="28.9951">children</text><rect fill="#E2E2F0" height="30.2969" style="stroke:#181818;stroke-width:0.5;" width="69" x="946" y="1251.2188"/><rect fill="#E2E2F0" height="30.2969" style="stroke:#181818;stroke-width:0.5;" width="69" x="942" y="1255.2188"/><text fill="#000000" font-family="sans-serif" font-size="14" lengthAdjust="spacing" textLength="55" x="949" y="1275.2139">children</text><rect fill="#FFFFFF" height="1057.7188" style="stroke:#FFFFFF;stroke-width:1.0;" width="10" x="86.5" y="50.2969"/><line style="stroke:#181818;stroke-width:1.0;" x1="86.5" x2="86.5" y1="50.2969" y2="1108.0156"/><line style="stroke:#181818;stroke-width:1.0;" x1="96.5" x2="96.5" y1="50.2969" y2="1108.0156"/><line style="stroke:#181818;stroke-width:1.0;" x1="86.5" x2="96.5" y1="50.2969" y2="50.2969"/><rect fill="#FFFFFF" height="85.3984" style="stroke:#FFFFFF;stroke-width:1.0;" width="10" x="86.5" y="1148.8203"/><line style="stroke:#181818;stroke-width:1.0;" x1="86.5" x2="86.5" y1="1148.8203" y2="1234.2188"/><line style="stroke:#181818;stroke-width:1.0;" x1="96.5" x2="96.5" y1="1148.8203" y2="1234.2188"/><line style="stroke:#181818;stroke-width:1.0;" x1="86.5" x2="96.5" y1="1234.2188" y2="1234.2188"/><rect fill="#FFFFFF" height="1028.5859" style="stroke:#181818;stroke-width:1.0;" width="10" x="291.5" y="71.4297"/><rect fill="#FFFFFF" height="64.2656" style="stroke:#181818;stroke-width:1.0;" width="10" x="291.5" y="1169.9531"/><rect fill="#FFFFFF" height="373.3984" style="stroke:#181818;stroke-width:1.0;" width="10" x="560.5" y="174.9609"/><rect fill="#FFFFFF" height="106.3984" style="stroke:#181818;stroke-width:1.0;" width="10" x="560.5" y="876.9531"/><rect fill="#FFFFFF" height="166.2305" style="stroke:#181818;stroke-width:1.0;" width="10" x="800.5" y="229.793"/><rect fill="#FFFFFF" height="30" style="stroke:#181818;stroke-width:1.0;" width="10" x="973.5" y="319.3242"/><polygon fill="#181818" points="279.5,67.4297,289.5,71.4297,279.5,75.4297,283.5,71.4297" style="stroke:#181818;stroke-width:1.0;"/><line style="stroke:#181818;stroke-width:1.0;" x1="96.5" x2="285.5" y1="71.4297" y2="71.4297"/><text fill="#000000" font-family="monospace" font-size="13" lengthAdjust="spacing" textLength="152" x="103.5" y="66.3638">sr_plugin_init_cb()</text><line style="stroke:#181818;stroke-width:1.0;" x1="301.5" x2="343.5" y1="104.6289" y2="104.6289"/><line style="stroke:#181818;stroke-width:1.0;" x1="343.5" x2="343.5" y1="104.6289" y2="117.6289"/><line style="stroke:#181818;stroke-width:1.0;" x1="302.5" x2="343.5" y1="117.6289" y2="117.6289"/><polygon fill="#181818" points="312.5,113.6289,302.5,117.6289,312.5,121.6289,308.5,117.6289" style="stroke:#181818;stroke-width:1.0;"/><text fill="#000000" font-family="sans-serif" font-size="13" lengthAdjust="spacing" textLength="111" x="308.5" y="99.563">Register modules</text><path d="M123,84.4297 L123,124.4297 L286,124.4297 L286,94.4297 L276,84.4297 L123,84.4297 " fill="#FEFFDD" style="stroke:#181818;stroke-width:0.5;"/><path d="M276,84.4297 L276,94.4297 L286,94.4297 L276,84.4297 " fill="#FEFFDD" style="stroke:#181818;stroke-width:0.5;"/><text fill="#000000" font-family="sans-serif" font-size="13" lengthAdjust="spacing" textLength="124" x="129" y="101.4966">Constructs the root</text><text fill="#000000" font-family="sans-serif" font-size="13" lengthAdjust="spacing" textLength="142" x="129" y="116.6294">object of each module</text><path d="M198,136.6953 L275,136.6953 L275,143.8281 L265,153.8281 L198,153.8281 L198,136.6953 " fill="#EEEEEE" style="stroke:#000000;stroke-width:1.5;"/><rect fill="none" height="419.6641" style="stroke:#000000;stroke-width:1.5;" width="1056.5" x="198" y="136.6953"/><text fill="#000000" font-family="sans-serif" font-size="13" font-weight="bold" lengthAdjust="spacing" textLength="32" x="213" y="149.7622">loop</text><text fill="#000000" font-family="sans-serif" font-size="11" font-weight="bold" lengthAdjust="spacing" textLength="64" x="290" y="148.9058">[modules]</text><polygon fill="#181818" points="548.5,170.9609,558.5,174.9609,548.5,178.9609,552.5,174.9609" style="stroke:#181818;stroke-width:1.0;"/><line style="stroke:#181818;stroke-width:1.0;" x1="301.5" x2="554.5" y1="174.9609" y2="174.9609"/><text fill="#000000" font-family="monospace" font-size="13" lengthAdjust="spacing" textLength="240" x="308.5" y="169.895">initializeDatastore(datastore)</text><polygon fill="#181818" points="788.5,225.793,798.5,229.793,788.5,233.793,792.5,229.793" style="stroke:#181818;stroke-width:1.0;"/><line style="stroke:#181818;stroke-width:1.0;" x1="570.5" x2="794.5" y1="229.793" y2="229.793"/><text fill="#000000" font-family="monospace" font-size="13" lengthAdjust="spacing" textLength="144" x="577.5" y="224.7271">GetNode(data_type)</text><path d="M208,187.9609 L208,257.9609 L555,257.9609 L555,197.9609 L545,187.9609 L208,187.9609 " fill="#FEFFDD" style="stroke:#181818;stroke-width:0.5;"/><path d="M545,187.9609 L545,197.9609 L555,197.9609 L545,187.9609 " fill="#FEFFDD" style="stroke:#181818;stroke-width:0.5;"/><text fill="#000000" font-family="monospace" font-size="13" lengthAdjust="spacing" textLength="72" x="214" y="205.0278">data_type</text><text fill="#000000" font-family="sans-serif" font-size="13" lengthAdjust="spacing" textLength="4" x="286" y="205.0278">:</text><text fill="#000000" font-family="monospace" font-size="13" lengthAdjust="spacing" textLength="160" x="214" y="220.1606">DataType::kStatePull</text><text fill="#000000" font-family="sans-serif" font-size="13" lengthAdjust="spacing" textLength="13" x="378" y="220.1606">or</text><text fill="#000000" font-family="monospace" font-size="13" lengthAdjust="spacing" textLength="136" x="395" y="220.1606">DataType::kConfig</text><text fill="#000000" font-family="sans-serif" font-size="13" lengthAdjust="spacing" textLength="157" x="214" y="235.2935">depending on datastore.</text><text fill="#000000" font-family="monospace" font-size="13" lengthAdjust="spacing" textLength="160" x="375" y="235.2935">DataType::kStatePush</text><text fill="#000000" font-family="sans-serif" font-size="13" lengthAdjust="spacing" textLength="326" x="214" y="250.4263">is not relevant here as it'll be collected on demand.</text><path d="M754.5,270.4922 L831.5,270.4922 L831.5,277.625 L821.5,287.625 L754.5,287.625 L754.5,270.4922 " fill="#EEEEEE" style="stroke:#000000;stroke-width:1.5;"/><rect fill="none" height="97.3984" style="stroke:#000000;stroke-width:1.5;" width="490" x="754.5" y="270.4922"/><text fill="#000000" font-family="sans-serif" font-size="13" font-weight="bold" lengthAdjust="spacing" textLength="32" x="769.5" y="283.5591">loop</text><text fill="#000000" font-family="sans-serif" font-size="11" font-weight="bold" lengthAdjust="spacing" textLength="62" x="846.5" y="282.7026">[children]</text><polygon fill="#181818" points="961.5,315.3242,971.5,319.3242,961.5,323.3242,965.5,319.3242" style="stroke:#181818;stroke-width:1.0;"/><line style="stroke:#181818;stroke-width:1.0;" x1="810.5" x2="967.5" y1="319.3242" y2="319.3242"/><text fill="#000000" font-family="monospace" font-size="13" lengthAdjust="spacing" textLength="144" x="817.5" y="314.2583">GetNode(data_type)</text><path d="M988,292.625 L988,332.625 L1234,332.625 L1234,302.625 L1224,292.625 L988,292.625 " fill="#FEFFDD" style="stroke:#181818;stroke-width:0.5;"/><path d="M1224,292.625 L1224,302.625 L1234,302.625 L1224,292.625 " fill="#FEFFDD" style="stroke:#181818;stroke-width:0.5;"/><text fill="#000000" font-family="sans-serif" font-size="13" lengthAdjust="spacing" textLength="225" x="994" y="309.6919">Container / list: Forward to children.</text><text fill="#000000" font-family="sans-serif" font-size="13" lengthAdjust="spacing" textLength="208" x="994" y="324.8247">Leaf / leaf-list: Return data node.</text><polygon fill="#181818" points="581.5,392.0234,571.5,396.0234,581.5,400.0234,577.5,396.0234" style="stroke:#181818;stroke-width:1.0;"/><line style="stroke:#181818;stroke-width:1.0;stroke-dasharray:2.0,2.0;" x1="575.5" x2="804.5" y1="396.0234" y2="396.0234"/><text fill="#000000" font-family="sans-serif" font-size="13" lengthAdjust="spacing" textLength="161" x="587.5" y="390.9575">Merged nodes of children</text><path d="M522.5,411.0234 L586.5,411.0234 L586.5,418.1563 L576.5,428.1563 L522.5,428.1563 L522.5,411.0234 " fill="#EEEEEE" style="stroke:#000000;stroke-width:1.5;"/><rect fill="none" height="124.3359" style="stroke:#000000;stroke-width:1.5;" width="523" x="522.5" y="411.0234"/><text fill="#000000" font-family="sans-serif" font-size="13" font-weight="bold" lengthAdjust="spacing" textLength="19" x="537.5" y="424.0903">alt</text><text fill="#000000" font-family="sans-serif" font-size="11" font-weight="bold" lengthAdjust="spacing" textLength="150" x="601.5" y="423.2339">[datastore == Running]</text><line style="stroke:#181818;stroke-width:1.0;" x1="570.5" x2="612.5" y1="453.3555" y2="453.3555"/><line style="stroke:#181818;stroke-width:1.0;" x1="612.5" x2="612.5" y1="453.3555" y2="466.3555"/><line style="stroke:#181818;stroke-width:1.0;" x1="571.5" x2="612.5" y1="466.3555" y2="466.3555"/><polygon fill="#181818" points="581.5,462.3555,571.5,466.3555,581.5,470.3555,577.5,466.3555" style="stroke:#181818;stroke-width:1.0;"/><text fill="#000000" font-family="monospace" font-size="13" lengthAdjust="spacing" textLength="200" x="577.5" y="448.2896">WriteDatastore(Candidate)</text><path d="M789,433.1563 L789,473.1563 L1025,473.1563 L1025,443.1563 L1015,433.1563 L789,433.1563 " fill="#FEFFDD" style="stroke:#181818;stroke-width:0.5;"/><path d="M1015,433.1563 L1015,443.1563 L1025,443.1563 L1015,433.1563 " fill="#FEFFDD" style="stroke:#181818;stroke-width:0.5;"/><text fill="#000000" font-family="sans-serif" font-size="13" lengthAdjust="spacing" textLength="51" x="795" y="450.2231">Running</text><text fill="#000000" font-family="sans-serif" font-size="13" font-style="italic" font-weight="bold" lengthAdjust="spacing" textLength="66" x="850" y="450.2231">must not</text><text fill="#000000" font-family="sans-serif" font-size="13" lengthAdjust="spacing" textLength="90" x="920" y="450.2231">be committed</text><text fill="#000000" font-family="sans-serif" font-size="13" lengthAdjust="spacing" textLength="203" x="795" y="465.356">yet, prepare Candidate instead!</text><line style="stroke:#000000;stroke-width:1.0;stroke-dasharray:2.0,2.0;" x1="522.5" x2="1045.5" y1="479.4219" y2="479.4219"/><text fill="#000000" font-family="sans-serif" font-size="11" font-weight="bold" lengthAdjust="spacing" textLength="174" x="527.5" y="489.6323">[datastore == Operational]</text><line style="stroke:#181818;stroke-width:1.0;" x1="570.5" x2="612.5" y1="514.3594" y2="514.3594"/><line style="stroke:#181818;stroke-width:1.0;" x1="612.5" x2="612.5" y1="514.3594" y2="527.3594"/><line style="stroke:#181818;stroke-width:1.0;" x1="571.5" x2="612.5" y1="527.3594" y2="527.3594"/><polygon fill="#181818" points="581.5,523.3594,571.5,527.3594,581.5,531.3594,577.5,527.3594" style="stroke:#181818;stroke-width:1.0;"/><text fill="#000000" font-family="monospace" font-size="13" lengthAdjust="spacing" textLength="216" x="577.5" y="509.2935">WriteDatastore(Operational)</text><polygon fill="#181818" points="312.5,544.3594,302.5,548.3594,312.5,552.3594,308.5,548.3594" style="stroke:#181818;stroke-width:1.0;"/><line style="stroke:#181818;stroke-width:1.0;stroke-dasharray:2.0,2.0;" x1="306.5" x2="564.5" y1="548.3594" y2="548.3594"/><line style="stroke:#181818;stroke-width:1.0;" x1="301.5" x2="343.5" y1="618.8242" y2="618.8242"/><line style="stroke:#181818;stroke-width:1.0;" x1="343.5" x2="343.5" y1="618.8242" y2="631.8242"/><line style="stroke:#181818;stroke-width:1.0;" x1="302.5" x2="343.5" y1="631.8242" y2="631.8242"/><polygon fill="#181818" points="312.5,627.8242,302.5,631.8242,312.5,635.8242,308.5,631.8242" style="stroke:#181818;stroke-width:1.0;"/><text fill="#000000" font-family="sans-serif" font-size="13" lengthAdjust="spacing" textLength="168" x="308.5" y="613.7583">Copy candidate to running</text><path d="M96,568.3594 L96,668.3594 L286,668.3594 L286,578.3594 L276,568.3594 L96,568.3594 " fill="#FEFFDD" style="stroke:#181818;stroke-width:0.5;"/><path d="M276,568.3594 L276,578.3594 L286,578.3594 L276,568.3594 " fill="#FEFFDD" style="stroke:#181818;stroke-width:0.5;"/><text fill="#000000" font-family="sans-serif" font-size="13" lengthAdjust="spacing" textLength="155" x="102" y="585.4263">Atomic commit required</text><text fill="#000000" font-family="sans-serif" font-size="13" lengthAdjust="spacing" textLength="149" x="102" y="600.5591">to satisfy possible Yang</text><text fill="#000000" font-family="sans-serif" font-size="13" lengthAdjust="spacing" textLength="169" x="102" y="615.6919">augmentation constraints.</text><text fill="#000000" font-family="sans-serif" font-size="13" lengthAdjust="spacing" textLength="4" x="102" y="630.8247">&#160;</text><text fill="#000000" font-family="sans-serif" font-size="13" lengthAdjust="spacing" textLength="136" x="102" y="645.9575">Current system state</text><text fill="#000000" font-family="sans-serif" font-size="13" lengthAdjust="spacing" textLength="119" x="102" y="661.0903">is now fully loaded.</text><path d="M258.5,681.1563 L335.5,681.1563 L335.5,688.2891 L325.5,698.2891 L258.5,698.2891 L258.5,681.1563 " fill="#EEEEEE" style="stroke:#000000;stroke-width:1.5;"/><rect fill="none" height="143.5313" style="stroke:#000000;stroke-width:1.5;" width="278" x="258.5" y="681.1563"/><text fill="#000000" font-family="sans-serif" font-size="13" font-weight="bold" lengthAdjust="spacing" textLength="32" x="273.5" y="694.2231">loop</text><text fill="#000000" font-family="sans-serif" font-size="11" font-weight="bold" lengthAdjust="spacing" textLength="64" x="350.5" y="693.3667">[modules]</text><line style="stroke:#181818;stroke-width:1.0;" x1="301.5" x2="343.5" y1="719.4219" y2="719.4219"/><line style="stroke:#181818;stroke-width:1.0;" x1="343.5" x2="343.5" y1="719.4219" y2="732.4219"/><line style="stroke:#181818;stroke-width:1.0;" x1="302.5" x2="343.5" y1="732.4219" y2="732.4219"/><polygon fill="#181818" points="312.5,728.4219,302.5,732.4219,312.5,736.4219,308.5,732.4219" style="stroke:#181818;stroke-width:1.0;"/><text fill="#000000" font-family="sans-serif" font-size="13" lengthAdjust="spacing" textLength="216" x="308.5" y="714.356">Register operational subscriptions</text><line style="stroke:#181818;stroke-width:1.0;" x1="301.5" x2="343.5" y1="761.5547" y2="761.5547"/><line style="stroke:#181818;stroke-width:1.0;" x1="343.5" x2="343.5" y1="761.5547" y2="774.5547"/><line style="stroke:#181818;stroke-width:1.0;" x1="302.5" x2="343.5" y1="774.5547" y2="774.5547"/><polygon fill="#181818" points="312.5,770.5547,302.5,774.5547,312.5,778.5547,308.5,774.5547" style="stroke:#181818;stroke-width:1.0;"/><text fill="#000000" font-family="sans-serif" font-size="13" lengthAdjust="spacing" textLength="192" x="308.5" y="756.4888">Register running subscriptions</text><line style="stroke:#181818;stroke-width:1.0;" x1="301.5" x2="343.5" y1="803.6875" y2="803.6875"/><line style="stroke:#181818;stroke-width:1.0;" x1="343.5" x2="343.5" y1="803.6875" y2="816.6875"/><line style="stroke:#181818;stroke-width:1.0;" x1="302.5" x2="343.5" y1="816.6875" y2="816.6875"/><polygon fill="#181818" points="312.5,812.6875,302.5,816.6875,312.5,820.6875,308.5,816.6875" style="stroke:#181818;stroke-width:1.0;"/><text fill="#000000" font-family="sans-serif" font-size="13" lengthAdjust="spacing" textLength="169" x="308.5" y="798.6216">Register RPC subscriptions</text><path d="M258.5,838.6875 L335.5,838.6875 L335.5,845.8203 L325.5,855.8203 L258.5,855.8203 L258.5,838.6875 " fill="#EEEEEE" style="stroke:#000000;stroke-width:1.5;"/><rect fill="none" height="152.6641" style="stroke:#000000;stroke-width:1.5;" width="787" x="258.5" y="838.6875"/><text fill="#000000" font-family="sans-serif" font-size="13" font-weight="bold" lengthAdjust="spacing" textLength="32" x="273.5" y="851.7544">loop</text><text fill="#000000" font-family="sans-serif" font-size="11" font-weight="bold" lengthAdjust="spacing" textLength="64" x="350.5" y="850.8979">[modules]</text><polygon fill="#181818" points="548.5,872.9531,558.5,876.9531,548.5,880.9531,552.5,876.9531" style="stroke:#181818;stroke-width:1.0;"/><line style="stroke:#181818;stroke-width:1.0;" x1="301.5" x2="554.5" y1="876.9531" y2="876.9531"/><text fill="#000000" font-family="monospace" font-size="13" lengthAdjust="spacing" textLength="232" x="308.5" y="871.8872">applyDatastoreValues(running)</text><line style="stroke:#181818;stroke-width:1.0;" x1="570.5" x2="612.5" y1="906.0859" y2="906.0859"/><line style="stroke:#181818;stroke-width:1.0;" x1="612.5" x2="612.5" y1="906.0859" y2="919.0859"/><line style="stroke:#181818;stroke-width:1.0;" x1="571.5" x2="612.5" y1="919.0859" y2="919.0859"/><polygon fill="#181818" points="581.5,915.0859,571.5,919.0859,581.5,923.0859,577.5,919.0859" style="stroke:#181818;stroke-width:1.0;"/><text fill="#000000" font-family="monospace" font-size="13" lengthAdjust="spacing" textLength="128" x="577.5" y="901.02">GetData(Startup)</text><line style="stroke:#181818;stroke-width:1.0;" x1="570.5" x2="612.5" y1="952.2852" y2="952.2852"/><line style="stroke:#181818;stroke-width:1.0;" x1="612.5" x2="612.5" y1="952.2852" y2="965.2852"/><line style="stroke:#181818;stroke-width:1.0;" x1="571.5" x2="612.5" y1="965.2852" y2="965.2852"/><polygon fill="#181818" points="581.5,961.2852,571.5,965.2852,581.5,969.2852,577.5,965.2852" style="stroke:#181818;stroke-width:1.0;"/><text fill="#000000" font-family="monospace" font-size="13" lengthAdjust="spacing" textLength="200" x="577.5" y="947.2192">WriteDatastore(Candidate)</text><path d="M789,932.0859 L789,972.0859 L1025,972.0859 L1025,942.0859 L1015,932.0859 L789,932.0859 " fill="#FEFFDD" style="stroke:#181818;stroke-width:0.5;"/><path d="M1015,932.0859 L1015,942.0859 L1025,942.0859 L1015,932.0859 " fill="#FEFFDD" style="stroke:#181818;stroke-width:0.5;"/><text fill="#000000" font-family="sans-serif" font-size="13" lengthAdjust="spacing" textLength="51" x="795" y="949.1528">Running</text><text fill="#000000" font-family="sans-serif" font-size="13" font-style="italic" font-weight="bold" lengthAdjust="spacing" textLength="66" x="850" y="949.1528">must not</text><text fill="#000000" font-family="sans-serif" font-size="13" lengthAdjust="spacing" textLength="90" x="920" y="949.1528">be committed</text><text fill="#000000" font-family="sans-serif" font-size="13" lengthAdjust="spacing" textLength="203" x="795" y="964.2856">yet, prepare Candidate instead!</text><polygon fill="#181818" points="312.5,979.3516,302.5,983.3516,312.5,987.3516,308.5,983.3516" style="stroke:#181818;stroke-width:1.0;"/><line style="stroke:#181818;stroke-width:1.0;stroke-dasharray:2.0,2.0;" x1="306.5" x2="564.5" y1="983.3516" y2="983.3516"/><line style="stroke:#181818;stroke-width:1.0;" x1="301.5" x2="343.5" y1="1046.25" y2="1046.25"/><line style="stroke:#181818;stroke-width:1.0;" x1="343.5" x2="343.5" y1="1046.25" y2="1059.25"/><line style="stroke:#181818;stroke-width:1.0;" x1="302.5" x2="343.5" y1="1059.25" y2="1059.25"/><polygon fill="#181818" points="312.5,1055.25,302.5,1059.25,312.5,1063.25,308.5,1059.25" style="stroke:#181818;stroke-width:1.0;"/><text fill="#000000" font-family="sans-serif" font-size="13" lengthAdjust="spacing" textLength="168" x="308.5" y="1041.1841">Copy candidate to running</text><path d="M67,1003.3516 L67,1088.3516 L286,1088.3516 L286,1013.3516 L276,1003.3516 L67,1003.3516 " fill="#FEFFDD" style="stroke:#181818;stroke-width:0.5;"/><path d="M276,1003.3516 L276,1013.3516 L286,1013.3516 L276,1003.3516 " fill="#FEFFDD" style="stroke:#181818;stroke-width:0.5;"/><text fill="#000000" font-family="sans-serif" font-size="13" lengthAdjust="spacing" textLength="198" x="73" y="1020.4185">Atomic commit required again.</text><text fill="#000000" font-family="sans-serif" font-size="13" lengthAdjust="spacing" textLength="188" x="73" y="1035.5513">Invokes subscription handlers</text><text fill="#000000" font-family="sans-serif" font-size="13" lengthAdjust="spacing" textLength="168" x="73" y="1050.6841">just like startup config was</text><text fill="#000000" font-family="sans-serif" font-size="13" lengthAdjust="spacing" textLength="180" x="73" y="1065.8169">requested by some external</text><text fill="#000000" font-family="sans-serif" font-size="13" lengthAdjust="spacing" textLength="73" x="73" y="1080.9497">application.</text><polygon fill="#181818" points="107.5,1096.0156,97.5,1100.0156,107.5,1104.0156,103.5,1100.0156" style="stroke:#181818;stroke-width:1.0;"/><line style="stroke:#181818;stroke-width:1.0;stroke-dasharray:2.0,2.0;" x1="101.5" x2="295.5" y1="1100.0156" y2="1100.0156"/><text fill="#000000" font-family="sans-serif" font-size="11" lengthAdjust="spacing" textLength="4" x="107.5" y="1132.2261">&#160;</text><text fill="#000000" font-family="sans-serif" font-size="11" font-style="italic" font-weight="bold" lengthAdjust="spacing" textLength="847" x="111.5" y="1132.2261">Wait for teardown request, meanwhile handle sysrepo operational and configuration change callbacks triggered by user requests...</text><text fill="#000000" font-family="sans-serif" font-size="11" lengthAdjust="spacing" textLength="4" x="958.5" y="1132.2261">&#160;</text><polygon fill="#181818" points="279.5,1165.9531,289.5,1169.9531,279.5,1173.9531,283.5,1169.9531" style="stroke:#181818;stroke-width:1.0;"/><line style="stroke:#181818;stroke-width:1.0;" x1="96.5" x2="285.5" y1="1169.9531" y2="1169.9531"/><text fill="#000000" font-family="monospace" font-size="13" lengthAdjust="spacing" textLength="176" x="103.5" y="1164.8872">sr_plugin_cleanup_cb()</text><line style="stroke:#181818;stroke-width:1.0;" x1="301.5" x2="343.5" y1="1203.1523" y2="1203.1523"/><line style="stroke:#181818;stroke-width:1.0;" x1="343.5" x2="343.5" y1="1203.1523" y2="1216.1523"/><line style="stroke:#181818;stroke-width:1.0;" x1="302.5" x2="343.5" y1="1216.1523" y2="1216.1523"/><polygon fill="#181818" points="312.5,1212.1523,302.5,1216.1523,312.5,1220.1523,308.5,1216.1523" style="stroke:#181818;stroke-width:1.0;"/><text fill="#000000" font-family="sans-serif" font-size="13" lengthAdjust="spacing" textLength="109" x="308.5" y="1198.0864">Destroy modules</text><path d="M112,1182.9531 L112,1222.9531 L286,1222.9531 L286,1192.9531 L276,1182.9531 L112,1182.9531 " fill="#FEFFDD" style="stroke:#181818;stroke-width:0.5;"/><path d="M276,1182.9531 L276,1192.9531 L286,1192.9531 L276,1182.9531 " fill="#FEFFDD" style="stroke:#181818;stroke-width:0.5;"/><text fill="#000000" font-family="sans-serif" font-size="13" lengthAdjust="spacing" textLength="153" x="118" y="1200.02">Destructs the root class</text><text fill="#000000" font-family="sans-serif" font-size="13" lengthAdjust="spacing" textLength="99" x="118" y="1215.1528">of each module</text><polygon fill="#181818" points="102.5,1230.2188,92.5,1234.2188,102.5,1238.2188,98.5,1234.2188" style="stroke:#181818;stroke-width:1.0;"/><line style="stroke:#181818;stroke-width:1.0;stroke-dasharray:2.0,2.0;" x1="96.5" x2="295.5" y1="1234.2188" y2="1234.2188"/><!--SRC=[pLPBS-Cs3BxhLw2wDCtisdVFR6TsdEqsCzaau-vZUihG4YnpGv4gISLLVtq1wcspZPDUgejaWm01V1yUbR1UPh8IsaDQ2gbX2Qvn5YlpKAcwa3fFGJZuzFxwDgccXrjf4DxVVFbuB2vDNYjiTU-kljnyc8kjCHwqoTiJcxkxpqbcbCBCIwCTfDbUgjnYQt_zw_NDrUR3RP88aZy9Zwq_G0z_mDkVEnzMaARETfu_I2tzGxQz-2bDmzb1ktCu_Db-Jqrii93EeuKs1XUEQKDw2dS-_E9dJOvwMsVUWTyZS4I3p6o_KoXWTe0YstU6WXHr7corbojZgjarSu_Qp75G78eKIlw5Ly8Bvut5Yxp_wkERnTXbVH24P8N_s39ddEr-H7zBA0HR3xwfPhRYSVTFcWvAQRgAYDdJpoHThHv_y-JIVQrKceAnSndbSIUBeslvoR6YR4bTWD4m1Bk8MdRxY07fs7smgF29MRT7YymdwNzK2hO87UKm3pTWANI-c5cPetMIuy3Ruri3fZr_JwJyi1g3qFFwB21EBX-g8dOgn_FE1NYjBFO-AkvuxganK3qiGL5XhE0NOm_2vk3D4EVY7zLlKEnOarvlM_KD-jgsY8OM4DSTKXyH9F6CJYhc4ze2ys3USHb6yPWaAI0v1rdvaNJmxXriQgs9Z2TtZqKrbkitA_saKjT4B4d6eg0-0q5tBLnUBfTbxRXh-kNoyhBbRrbAJ_oDQZRetq15hLnG08CB8AbjeSX_ICxAE2g7yppSLMW5jscXNfEBYVfnDXZPvDZKq9YJ26nTavifdpRqjQaQo8O446tj1ClJ3lVUcr9cNNQfVVnHIpl9CUaxYi3j6gYCStAh47uN4sQ8kYYHYeQZ92iy9gY0l1k9FWwHsX8hFSzSZoKuxcR9h7yTO4Tziw6s8dBisjEBXiZ9M3CZ0k3ghSkihCBOFKUvozpB5JVtwuZIWDhPar1KbMe6EdqLgaPtqNdrYa4u6gOEp6OlQA9ONrV7vFmlPVul9Vwwydv9QSTdsF-kl40KL2HZYLph9_D8pNlA6TZJBGhjo93ld38b7v5BXs7ZUgDr0WvYFCHNeECnlst0cH81_oHAJXiOiqfceIfY9TO7pUZtc-SaJzDzSh5O132_2GfkHyiE8M9pSz2z6s-WHA4FD92mYwVVk6ULIP8kbjfsdOHE5yGAeTHMP8-qTXAb2hHjNBNZwcolSEH4816zdzsICnhDkgxwHJcwASU1lwAhh6cUsPF3gTcQ39aIReJdsItvlEnFUSkd_WO0]--></g></svg>