<?xml version="1.0" encoding="us-ascii" standalone="no"?><svg xmlns="http://www.w3.org/2000/svg" xmlns:xlink="http://www.w3.org/1999/xlink" contentStyleType="text/css" height="524px" preserveAspectRatio="none" style="width:968px;height:524px;background:#FFFFFF;" version="1.1" viewBox="0 0 968 524" width="968px" zoomAndPan="magnify"><defs/><g><rect fill="#FFFFFF" height="395.5938" style="stroke:#181818;stroke-width:1.0;" width="10" x="241.5" y="71.4297"/><rect fill="#FFFFFF" height="143.5313" style="stroke:#181818;stroke-width:1.0;" width="10" x="502.5" y="118.6953"/><rect fill="#FFFFFF" height="143.5313" style="stroke:#181818;stroke-width:1.0;" width="10" x="502.5" y="294.3594"/><rect fill="#FFFFFF" height="30" style="stroke:#181818;stroke-width:1.0;" width="10" x="675.5" y="200.6602"/><rect fill="#FFFFFF" height="30" style="stroke:#181818;stroke-width:1.0;" width="10" x="675.5" y="361.1914"/><rect fill="none" height="97.3984" style="stroke:#000000;stroke-width:1.5;" width="506" x="456.5" y="151.8281"/><rect fill="none" height="97.3984" style="stroke:#000000;stroke-width:1.5;" width="490" x="456.5" y="312.3594"/><line style="stroke:#181818;stroke-width:0.5;stroke-dasharray:5.0,5.0;" x1="110" x2="110" y1="40.2969" y2="485.0234"/><line style="stroke:#181818;stroke-width:0.5;stroke-dasharray:5.0,5.0;" x1="246.5" x2="246.5" y1="40.2969" y2="485.0234"/><line style="stroke:#181818;stroke-width:0.5;stroke-dasharray:5.0,5.0;" x1="507.5" x2="507.5" y1="40.2969" y2="485.0234"/><line style="stroke:#181818;stroke-width:0.5;stroke-dasharray:5.0,5.0;" x1="680" x2="680" y1="40.2969" y2="485.0234"/><rect fill="#E2E2F0" height="30.2969" rx="2.5" ry="2.5" style="stroke:#181818;stroke-width:0.5;" width="69" x="76" y="9"/><text fill="#000000" font-family="sans-serif" font-size="14" lengthAdjust="spacing" textLength="55" x="83" y="28.9951">sysrepo</text><rect fill="#E2E2F0" height="30.2969" rx="2.5" ry="2.5" style="stroke:#181818;stroke-width:0.5;" width="69" x="76" y="484.0234"/><text fill="#000000" font-family="sans-serif" font-size="14" lengthAdjust="spacing" textLength="55" x="83" y="504.0186">sysrepo</text><rect fill="#E2E2F0" height="30.2969" rx="2.5" ry="2.5" style="stroke:#181818;stroke-width:0.5;" width="66" x="213.5" y="9"/><text fill="#000000" font-family="sans-serif" font-size="14" lengthAdjust="spacing" textLength="52" x="220.5" y="28.9951">module</text><rect fill="#E2E2F0" height="30.2969" rx="2.5" ry="2.5" style="stroke:#181818;stroke-width:0.5;" width="66" x="213.5" y="484.0234"/><text fill="#000000" font-family="sans-serif" font-size="14" lengthAdjust="spacing" textLength="52" x="220.5" y="504.0186">module</text><rect fill="#E2E2F0" height="30.2969" rx="2.5" ry="2.5" style="stroke:#181818;stroke-width:0.5;" width="82" x="466.5" y="9"/><text fill="#000000" font-family="sans-serif" font-size="14" lengthAdjust="spacing" textLength="68" x="473.5" y="28.9951">root node</text><rect fill="#E2E2F0" height="30.2969" rx="2.5" ry="2.5" style="stroke:#181818;stroke-width:0.5;" width="82" x="466.5" y="484.0234"/><text fill="#000000" font-family="sans-serif" font-size="14" lengthAdjust="spacing" textLength="68" x="473.5" y="504.0186">root node</text><rect fill="#E2E2F0" height="30.2969" style="stroke:#181818;stroke-width:0.5;" width="69" x="648" y="5"/><rect fill="#E2E2F0" height="30.2969" style="stroke:#181818;stroke-width:0.5;" width="69" x="644" y="9"/><text fill="#000000" font-family="sans-serif" font-size="14" lengthAdjust="spacing" textLength="55" x="651" y="28.9951">children</text><rect fill="#E2E2F0" height="30.2969" style="stroke:#181818;stroke-width:0.5;" width="69" x="648" y="484.0234"/><rect fill="#E2E2F0" height="30.2969" style="stroke:#181818;stroke-width:0.5;" width="69" x="644" y="488.0234"/><text fill="#000000" font-family="sans-serif" font-size="14" lengthAdjust="spacing" textLength="55" x="651" y="508.0186">children</text><rect fill="#FFFFFF" height="395.5938" style="stroke:#181818;stroke-width:1.0;" width="10" x="241.5" y="71.4297"/><rect fill="#FFFFFF" height="143.5313" style="stroke:#181818;stroke-width:1.0;" width="10" x="502.5" y="118.6953"/><rect fill="#FFFFFF" height="143.5313" style="stroke:#181818;stroke-width:1.0;" width="10" x="502.5" y="294.3594"/><rect fill="#FFFFFF" height="30" style="stroke:#181818;stroke-width:1.0;" width="10" x="675.5" y="200.6602"/><rect fill="#FFFFFF" height="30" style="stroke:#181818;stroke-width:1.0;" width="10" x="675.5" y="361.1914"/><polygon fill="#181818" points="229.5,67.4297,239.5,71.4297,229.5,75.4297,233.5,71.4297" style="stroke:#181818;stroke-width:1.0;"/><line style="stroke:#181818;stroke-width:1.0;" x1="110.5" x2="235.5" y1="71.4297" y2="71.4297"/><text fill="#000000" font-family="monospace" font-size="13" lengthAdjust="spacing" textLength="112" x="117.5" y="66.3638">operCallback()</text><polygon fill="#181818" points="490.5,114.6953,500.5,118.6953,490.5,122.6953,494.5,118.6953" style="stroke:#181818;stroke-width:1.0;"/><line style="stroke:#181818;stroke-width:1.0;" x1="251.5" x2="496.5" y1="118.6953" y2="118.6953"/><text fill="#000000" font-family="monospace" font-size="13" lengthAdjust="spacing" textLength="208" x="258.5" y="113.6294">Load(DataType::kStatePull)</text><path d="M5,84.4297 L5,139.4297 L237,139.4297 L237,94.4297 L227,84.4297 L5,84.4297 " fill="#FEFFDD" style="stroke:#181818;stroke-width:0.5;"/><path d="M227,84.4297 L227,94.4297 L237,94.4297 L227,84.4297 " fill="#FEFFDD" style="stroke:#181818;stroke-width:0.5;"/><text fill="#000000" font-family="sans-serif" font-size="13" lengthAdjust="spacing" textLength="211" x="11" y="101.4966">Refresh the cache of state nodes</text><text fill="#000000" font-family="sans-serif" font-size="13" lengthAdjust="spacing" textLength="37" x="11" y="116.6294">of the</text><text fill="#000000" font-family="sans-serif" font-size="13" font-style="italic" lengthAdjust="spacing" textLength="22" x="52" y="116.6294">pull</text><text fill="#000000" font-family="sans-serif" font-size="13" lengthAdjust="spacing" textLength="119" x="78" y="116.6294">type with a current</text><text fill="#000000" font-family="sans-serif" font-size="13" lengthAdjust="spacing" textLength="155" x="11" y="131.7622">snapshot of the system.</text><path d="M456.5,151.8281 L533.5,151.8281 L533.5,158.9609 L523.5,168.9609 L456.5,168.9609 L456.5,151.8281 " fill="#EEEEEE" style="stroke:#000000;stroke-width:1.5;"/><rect fill="none" height="97.3984" style="stroke:#000000;stroke-width:1.5;" width="506" x="456.5" y="151.8281"/><text fill="#000000" font-family="sans-serif" font-size="13" font-weight="bold" lengthAdjust="spacing" textLength="32" x="471.5" y="164.895">loop</text><text fill="#000000" font-family="sans-serif" font-size="11" font-weight="bold" lengthAdjust="spacing" textLength="62" x="548.5" y="164.0386">[children]</text><polygon fill="#181818" points="663.5,196.6602,673.5,200.6602,663.5,204.6602,667.5,200.6602" style="stroke:#181818;stroke-width:1.0;"/><line style="stroke:#181818;stroke-width:1.0;" x1="512.5" x2="669.5" y1="200.6602" y2="200.6602"/><text fill="#000000" font-family="monospace" font-size="13" lengthAdjust="spacing" textLength="120" x="519.5" y="195.5942">Load(data_type)</text><path d="M690,173.9609 L690,213.9609 L957,213.9609 L957,183.9609 L947,173.9609 L690,173.9609 " fill="#FEFFDD" style="stroke:#181818;stroke-width:0.5;"/><path d="M947,173.9609 L947,183.9609 L957,183.9609 L947,173.9609 " fill="#FEFFDD" style="stroke:#181818;stroke-width:0.5;"/><text fill="#000000" font-family="sans-serif" font-size="13" lengthAdjust="spacing" textLength="225" x="696" y="191.0278">Container / list: Forward to children.</text><text fill="#000000" font-family="sans-serif" font-size="13" lengthAdjust="spacing" textLength="246" x="696" y="206.1606">Leaf / leaf-list: Load data from system.</text><polygon fill="#181818" points="262.5,258.2266,252.5,262.2266,262.5,266.2266,258.5,262.2266" style="stroke:#181818;stroke-width:1.0;"/><line style="stroke:#181818;stroke-width:1.0;stroke-dasharray:2.0,2.0;" x1="256.5" x2="506.5" y1="262.2266" y2="262.2266"/><polygon fill="#181818" points="490.5,290.3594,500.5,294.3594,490.5,298.3594,494.5,294.3594" style="stroke:#181818;stroke-width:1.0;"/><line style="stroke:#181818;stroke-width:1.0;" x1="251.5" x2="496.5" y1="294.3594" y2="294.3594"/><text fill="#000000" font-family="monospace" font-size="13" lengthAdjust="spacing" textLength="232" x="258.5" y="289.2935">GetNode(DataType::kStatePull)</text><path d="M38,275.2266 L38,300.2266 L236,300.2266 L236,285.2266 L226,275.2266 L38,275.2266 " fill="#FEFFDD" style="stroke:#181818;stroke-width:0.5;"/><path d="M226,275.2266 L226,285.2266 L236,285.2266 L226,275.2266 " fill="#FEFFDD" style="stroke:#181818;stroke-width:0.5;"/><text fill="#000000" font-family="sans-serif" font-size="13" lengthAdjust="spacing" textLength="77" x="44" y="292.2935">Now get the</text><text fill="#000000" font-family="sans-serif" font-size="13" font-style="italic" lengthAdjust="spacing" textLength="22" x="125" y="292.2935">pull</text><text fill="#000000" font-family="sans-serif" font-size="13" lengthAdjust="spacing" textLength="70" x="151" y="292.2935">state data.</text><path d="M456.5,312.3594 L533.5,312.3594 L533.5,319.4922 L523.5,329.4922 L456.5,329.4922 L456.5,312.3594 " fill="#EEEEEE" style="stroke:#000000;stroke-width:1.5;"/><rect fill="none" height="97.3984" style="stroke:#000000;stroke-width:1.5;" width="490" x="456.5" y="312.3594"/><text fill="#000000" font-family="sans-serif" font-size="13" font-weight="bold" lengthAdjust="spacing" textLength="32" x="471.5" y="325.4263">loop</text><text fill="#000000" font-family="sans-serif" font-size="11" font-weight="bold" lengthAdjust="spacing" textLength="62" x="548.5" y="324.5698">[children]</text><polygon fill="#181818" points="663.5,357.1914,673.5,361.1914,663.5,365.1914,667.5,361.1914" style="stroke:#181818;stroke-width:1.0;"/><line style="stroke:#181818;stroke-width:1.0;" x1="512.5" x2="669.5" y1="361.1914" y2="361.1914"/><text fill="#000000" font-family="monospace" font-size="13" lengthAdjust="spacing" textLength="144" x="519.5" y="356.1255">GetNode(data_type)</text><path d="M690,334.4922 L690,374.4922 L936,374.4922 L936,344.4922 L926,334.4922 L690,334.4922 " fill="#FEFFDD" style="stroke:#181818;stroke-width:0.5;"/><path d="M926,334.4922 L926,344.4922 L936,344.4922 L926,334.4922 " fill="#FEFFDD" style="stroke:#181818;stroke-width:0.5;"/><text fill="#000000" font-family="sans-serif" font-size="13" lengthAdjust="spacing" textLength="225" x="696" y="351.5591">Container / list: Forward to children.</text><text fill="#000000" font-family="sans-serif" font-size="13" lengthAdjust="spacing" textLength="208" x="696" y="366.6919">Leaf / leaf-list: Return data node.</text><polygon fill="#181818" points="262.5,433.8906,252.5,437.8906,262.5,441.8906,258.5,437.8906" style="stroke:#181818;stroke-width:1.0;"/><line style="stroke:#181818;stroke-width:1.0;stroke-dasharray:2.0,2.0;" x1="256.5" x2="506.5" y1="437.8906" y2="437.8906"/><text fill="#000000" font-family="sans-serif" font-size="13" lengthAdjust="spacing" textLength="161" x="268.5" y="432.8247">Merged nodes of children</text><polygon fill="#181818" points="121.5,463.0234,111.5,467.0234,121.5,471.0234,117.5,467.0234" style="stroke:#181818;stroke-width:1.0;"/><line style="stroke:#181818;stroke-width:1.0;stroke-dasharray:2.0,2.0;" x1="115.5" x2="245.5" y1="467.0234" y2="467.0234"/><text fill="#000000" font-family="sans-serif" font-size="13" lengthAdjust="spacing" textLength="100" x="127.5" y="461.9575">Yang data node</text><!--SRC=[rLJ1Rjim3BthAmYVsaFhkm-z95bN84qAfplqD6WM7HjLH45Y5lJl9ycs6gzeWHNOeJpOiSX7yZrIiT9nt_HM6eR2ltY7bWgG7dPFkthri1NsFE10wgWn-U-ton_hrTpjY1WCgI6YtcuVHKDQOyCz6Gz5q_LQEJJ9lVX-jrxMguqGOocukXcpLb0KPD4jfDQ_PFDySLaKGiYGvhTad4f3iE5dHCPg4RScgIwMakNZYyMgUjvnW3mSjOuv8iHGIA6nvVGLhSRMeU-0EuH6Dk59BVY8IsHy3Wp7CQOiRSXNbi2X19nwxa12StI1sMjIRwJrNT1Z10Lj6G_NoOz6fJP4-igyac0JNXDPc0JBfwdT41OPJm9crYgm_XbxcgXEbYjapS-z2Z_s9y5Sl-zuTXnjGOPbRz112RhtNC4tSYVf533bvg_VmDOesuW8hwi15lk7s3-qZWupiIRBefqTYBacUO74NxoIikyip2to9apv7tTcGoVO8y_tOTYPIED_pNbgzWkFkaO-EZCCErwlpq-vWdjqUrJ3BOqNRQRZX_CFISQ_dGgUfDc_zYFESECsYJy0]--></g></svg>