<?xml version="1.0" encoding="us-ascii" standalone="no"?><svg xmlns="http://www.w3.org/2000/svg" xmlns:xlink="http://www.w3.org/1999/xlink" contentStyleType="text/css" height="1340px" preserveAspectRatio="none" style="width:814px;height:1340px;background:#FFFFFF;" version="1.1" viewBox="0 0 814 1340" width="814px" zoomAndPan="magnify"><defs/><g><rect fill="#FFFFFF" height="1211.7891" style="stroke:#181818;stroke-width:1.0;" width="10" x="186.5" y="71.4297"/><rect fill="#FFFFFF" height="139.6641" style="stroke:#181818;stroke-width:1.0;" width="10" x="335.5" y="148.8281"/><rect fill="#FFFFFF" height="139.6641" style="stroke:#181818;stroke-width:1.0;" width="10" x="335.5" y="324.625"/><rect fill="#FFFFFF" height="139.6641" style="stroke:#181818;stroke-width:1.0;" width="10" x="335.5" y="493.4219"/><rect fill="#FFFFFF" height="109.3984" style="stroke:#181818;stroke-width:1.0;" width="10" x="335.5" y="677.0234"/><rect fill="#FFFFFF" height="109.3984" style="stroke:#181818;stroke-width:1.0;" width="10" x="335.5" y="830.3594"/><rect fill="#FFFFFF" height="139.6641" style="stroke:#181818;stroke-width:1.0;" width="10" x="335.5" y="968.8906"/><rect fill="#FFFFFF" height="109.3984" style="stroke:#181818;stroke-width:1.0;" width="10" x="335.5" y="1137.6875"/><rect fill="#FFFFFF" height="39.6992" style="stroke:#181818;stroke-width:1.0;" width="10" x="484.5" y="212.6602"/><rect fill="#FFFFFF" height="39.6992" style="stroke:#181818;stroke-width:1.0;" width="10" x="484.5" y="388.457"/><rect fill="#FFFFFF" height="39.6992" style="stroke:#181818;stroke-width:1.0;" width="10" x="484.5" y="557.2539"/><rect fill="#FFFFFF" height="24.5664" style="stroke:#181818;stroke-width:1.0;" width="10" x="484.5" y="740.8555"/><rect fill="#FFFFFF" height="24.5664" style="stroke:#181818;stroke-width:1.0;" width="10" x="484.5" y="894.1914"/><rect fill="#FFFFFF" height="39.6992" style="stroke:#181818;stroke-width:1.0;" width="10" x="484.5" y="1032.7227"/><rect fill="#FFFFFF" height="24.5664" style="stroke:#181818;stroke-width:1.0;" width="10" x="484.5" y="1201.5195"/><rect fill="none" height="1168.6563" style="stroke:#000000;stroke-width:1.5;" width="669" x="138.5" y="86.4297"/><rect fill="none" height="185.9297" style="stroke:#000000;stroke-width:1.5;" width="617" x="148.5" y="110.5625"/><rect fill="none" height="96.5313" style="stroke:#000000;stroke-width:1.5;" width="466" x="289.5" y="163.8281"/><rect fill="none" height="96.5313" style="stroke:#000000;stroke-width:1.5;" width="461" x="289.5" y="339.625"/><rect fill="none" height="96.5313" style="stroke:#000000;stroke-width:1.5;" width="478" x="289.5" y="508.4219"/><rect fill="none" height="81.3984" style="stroke:#000000;stroke-width:1.5;" width="461" x="289.5" y="692.0234"/><rect fill="none" height="81.3984" style="stroke:#000000;stroke-width:1.5;" width="508" x="289.5" y="845.3594"/><rect fill="none" height="96.5313" style="stroke:#000000;stroke-width:1.5;" width="478" x="289.5" y="983.8906"/><rect fill="none" height="81.3984" style="stroke:#000000;stroke-width:1.5;" width="461" x="289.5" y="1152.6875"/><line style="stroke:#181818;stroke-width:0.5;stroke-dasharray:5.0,5.0;" x1="39" x2="39" y1="40.2969" y2="1301.2188"/><line style="stroke:#181818;stroke-width:0.5;stroke-dasharray:5.0,5.0;" x1="191.5" x2="191.5" y1="40.2969" y2="1301.2188"/><line style="stroke:#181818;stroke-width:0.5;stroke-dasharray:5.0,5.0;" x1="340.5" x2="340.5" y1="40.2969" y2="1301.2188"/><line style="stroke:#181818;stroke-width:0.5;stroke-dasharray:5.0,5.0;" x1="489" x2="489" y1="40.2969" y2="1301.2188"/><rect fill="#E2E2F0" height="30.2969" rx="2.5" ry="2.5" style="stroke:#181818;stroke-width:0.5;" width="69" x="5" y="9"/><text fill="#000000" font-family="sans-serif" font-size="14" lengthAdjust="spacing" textLength="55" x="12" y="28.9951">sysrepo</text><rect fill="#E2E2F0" height="30.2969" rx="2.5" ry="2.5" style="stroke:#181818;stroke-width:0.5;" width="69" x="5" y="1300.2188"/><text fill="#000000" font-family="sans-serif" font-size="14" lengthAdjust="spacing" textLength="55" x="12" y="1320.2139">sysrepo</text><rect fill="#E2E2F0" height="30.2969" rx="2.5" ry="2.5" style="stroke:#181818;stroke-width:0.5;" width="66" x="158.5" y="9"/><text fill="#000000" font-family="sans-serif" font-size="14" lengthAdjust="spacing" textLength="52" x="165.5" y="28.9951">module</text><rect fill="#E2E2F0" height="30.2969" rx="2.5" ry="2.5" style="stroke:#181818;stroke-width:0.5;" width="66" x="158.5" y="1300.2188"/><text fill="#000000" font-family="sans-serif" font-size="14" lengthAdjust="spacing" textLength="52" x="165.5" y="1320.2139">module</text><rect fill="#E2E2F0" height="30.2969" rx="2.5" ry="2.5" style="stroke:#181818;stroke-width:0.5;" width="82" x="299.5" y="9"/><text fill="#000000" font-family="sans-serif" font-size="14" lengthAdjust="spacing" textLength="68" x="306.5" y="28.9951">root node</text><rect fill="#E2E2F0" height="30.2969" rx="2.5" ry="2.5" style="stroke:#181818;stroke-width:0.5;" width="82" x="299.5" y="1300.2188"/><text fill="#000000" font-family="sans-serif" font-size="14" lengthAdjust="spacing" textLength="68" x="306.5" y="1320.2139">root node</text><rect fill="#E2E2F0" height="30.2969" style="stroke:#181818;stroke-width:0.5;" width="69" x="457" y="5"/><rect fill="#E2E2F0" height="30.2969" style="stroke:#181818;stroke-width:0.5;" width="69" x="453" y="9"/><text fill="#000000" font-family="sans-serif" font-size="14" lengthAdjust="spacing" textLength="55" x="460" y="28.9951">children</text><rect fill="#E2E2F0" height="30.2969" style="stroke:#181818;stroke-width:0.5;" width="69" x="457" y="1300.2188"/><rect fill="#E2E2F0" height="30.2969" style="stroke:#181818;stroke-width:0.5;" width="69" x="453" y="1304.2188"/><text fill="#000000" font-family="sans-serif" font-size="14" lengthAdjust="spacing" textLength="55" x="460" y="1324.2139">children</text><rect fill="#FFFFFF" height="1211.7891" style="stroke:#181818;stroke-width:1.0;" width="10" x="186.5" y="71.4297"/><rect fill="#FFFFFF" height="139.6641" style="stroke:#181818;stroke-width:1.0;" width="10" x="335.5" y="148.8281"/><rect fill="#FFFFFF" height="139.6641" style="stroke:#181818;stroke-width:1.0;" width="10" x="335.5" y="324.625"/><rect fill="#FFFFFF" height="139.6641" style="stroke:#181818;stroke-width:1.0;" width="10" x="335.5" y="493.4219"/><rect fill="#FFFFFF" height="109.3984" style="stroke:#181818;stroke-width:1.0;" width="10" x="335.5" y="677.0234"/><rect fill="#FFFFFF" height="109.3984" style="stroke:#181818;stroke-width:1.0;" width="10" x="335.5" y="830.3594"/><rect fill="#FFFFFF" height="139.6641" style="stroke:#181818;stroke-width:1.0;" width="10" x="335.5" y="968.8906"/><rect fill="#FFFFFF" height="109.3984" style="stroke:#181818;stroke-width:1.0;" width="10" x="335.5" y="1137.6875"/><rect fill="#FFFFFF" height="39.6992" style="stroke:#181818;stroke-width:1.0;" width="10" x="484.5" y="212.6602"/><rect fill="#FFFFFF" height="39.6992" style="stroke:#181818;stroke-width:1.0;" width="10" x="484.5" y="388.457"/><rect fill="#FFFFFF" height="39.6992" style="stroke:#181818;stroke-width:1.0;" width="10" x="484.5" y="557.2539"/><rect fill="#FFFFFF" height="24.5664" style="stroke:#181818;stroke-width:1.0;" width="10" x="484.5" y="740.8555"/><rect fill="#FFFFFF" height="24.5664" style="stroke:#181818;stroke-width:1.0;" width="10" x="484.5" y="894.1914"/><rect fill="#FFFFFF" height="39.6992" style="stroke:#181818;stroke-width:1.0;" width="10" x="484.5" y="1032.7227"/><rect fill="#FFFFFF" height="24.5664" style="stroke:#181818;stroke-width:1.0;" width="10" x="484.5" y="1201.5195"/><polygon fill="#181818" points="174.5,67.4297,184.5,71.4297,174.5,75.4297,178.5,71.4297" style="stroke:#181818;stroke-width:1.0;"/><line style="stroke:#181818;stroke-width:1.0;" x1="39.5" x2="180.5" y1="71.4297" y2="71.4297"/><text fill="#000000" font-family="monospace" font-size="13" lengthAdjust="spacing" textLength="128" x="46.5" y="66.3638">changeCallback()</text><path d="M138.5,86.4297 L202.5,86.4297 L202.5,93.5625 L192.5,103.5625 L138.5,103.5625 L138.5,86.4297 " fill="#EEEEEE" style="stroke:#000000;stroke-width:1.5;"/><rect fill="none" height="1168.6563" style="stroke:#000000;stroke-width:1.5;" width="669" x="138.5" y="86.4297"/><text fill="#000000" font-family="sans-serif" font-size="13" font-weight="bold" lengthAdjust="spacing" textLength="19" x="153.5" y="99.4966">alt</text><text fill="#000000" font-family="sans-serif" font-size="11" font-weight="bold" lengthAdjust="spacing" textLength="121" x="217.5" y="98.6401">[event == Change]</text><path d="M148.5,110.5625 L225.5,110.5625 L225.5,117.6953 L215.5,127.6953 L148.5,127.6953 L148.5,110.5625 " fill="#EEEEEE" style="stroke:#000000;stroke-width:1.5;"/><rect fill="none" height="185.9297" style="stroke:#000000;stroke-width:1.5;" width="617" x="148.5" y="110.5625"/><text fill="#000000" font-family="sans-serif" font-size="13" font-weight="bold" lengthAdjust="spacing" textLength="32" x="163.5" y="123.6294">loop</text><text fill="#000000" font-family="sans-serif" font-size="11" font-weight="bold" lengthAdjust="spacing" textLength="64" x="240.5" y="122.7729">[changes]</text><polygon fill="#181818" points="323.5,144.8281,333.5,148.8281,323.5,152.8281,327.5,148.8281" style="stroke:#181818;stroke-width:1.0;"/><line style="stroke:#181818;stroke-width:1.0;" x1="196.5" x2="329.5" y1="148.8281" y2="148.8281"/><text fill="#000000" font-family="monospace" font-size="13" lengthAdjust="spacing" textLength="120" x="203.5" y="143.7622">SetNode(change)</text><path d="M289.5,163.8281 L366.5,163.8281 L366.5,170.9609 L356.5,180.9609 L289.5,180.9609 L289.5,163.8281 " fill="#EEEEEE" style="stroke:#000000;stroke-width:1.5;"/><rect fill="none" height="96.5313" style="stroke:#000000;stroke-width:1.5;" width="466" x="289.5" y="163.8281"/><text fill="#000000" font-family="sans-serif" font-size="13" font-weight="bold" lengthAdjust="spacing" textLength="32" x="304.5" y="176.895">loop</text><text fill="#000000" font-family="sans-serif" font-size="11" font-weight="bold" lengthAdjust="spacing" textLength="62" x="381.5" y="176.0386">[children]</text><polygon fill="#181818" points="472.5,208.6602,482.5,212.6602,472.5,216.6602,476.5,212.6602" style="stroke:#181818;stroke-width:1.0;"/><line style="stroke:#181818;stroke-width:1.0;" x1="345.5" x2="478.5" y1="212.6602" y2="212.6602"/><text fill="#000000" font-family="monospace" font-size="13" lengthAdjust="spacing" textLength="120" x="352.5" y="207.5942">SetNode(change)</text><path d="M499,185.9609 L499,225.9609 L745,225.9609 L745,195.9609 L735,185.9609 L499,185.9609 " fill="#FEFFDD" style="stroke:#181818;stroke-width:0.5;"/><path d="M735,185.9609 L735,195.9609 L745,195.9609 L735,185.9609 " fill="#FEFFDD" style="stroke:#181818;stroke-width:0.5;"/><text fill="#000000" font-family="sans-serif" font-size="13" lengthAdjust="spacing" textLength="225" x="505" y="203.0278">Container / list: Forward to children.</text><text fill="#000000" font-family="sans-serif" font-size="13" lengthAdjust="spacing" textLength="186" x="505" y="218.1606">Leaf / leaf-list: Update cache.</text><polygon fill="#181818" points="356.5,248.3594,346.5,252.3594,356.5,256.3594,352.5,252.3594" style="stroke:#181818;stroke-width:1.0;"/><line style="stroke:#181818;stroke-width:1.0;stroke-dasharray:2.0,2.0;" x1="350.5" x2="488.5" y1="252.3594" y2="252.3594"/><text fill="#000000" font-family="sans-serif" font-size="13" lengthAdjust="spacing" textLength="97" x="362.5" y="247.2935">Success status</text><polygon fill="#181818" points="207.5,284.4922,197.5,288.4922,207.5,292.4922,203.5,288.4922" style="stroke:#181818;stroke-width:1.0;"/><line style="stroke:#181818;stroke-width:1.0;stroke-dasharray:2.0,2.0;" x1="201.5" x2="339.5" y1="288.4922" y2="288.4922"/><text fill="#000000" font-family="sans-serif" font-size="13" lengthAdjust="spacing" textLength="97" x="213.5" y="283.4263">Success status</text><polygon fill="#181818" points="323.5,320.625,333.5,324.625,323.5,328.625,327.5,324.625" style="stroke:#181818;stroke-width:1.0;"/><line style="stroke:#181818;stroke-width:1.0;" x1="196.5" x2="329.5" y1="324.625" y2="324.625"/><text fill="#000000" font-family="monospace" font-size="13" lengthAdjust="spacing" textLength="80" x="203.5" y="319.5591">Validate()</text><path d="M289.5,339.625 L366.5,339.625 L366.5,346.7578 L356.5,356.7578 L289.5,356.7578 L289.5,339.625 " fill="#EEEEEE" style="stroke:#000000;stroke-width:1.5;"/><rect fill="none" height="96.5313" style="stroke:#000000;stroke-width:1.5;" width="461" x="289.5" y="339.625"/><text fill="#000000" font-family="sans-serif" font-size="13" font-weight="bold" lengthAdjust="spacing" textLength="32" x="304.5" y="352.6919">loop</text><text fill="#000000" font-family="sans-serif" font-size="11" font-weight="bold" lengthAdjust="spacing" textLength="62" x="381.5" y="351.8354">[children]</text><polygon fill="#181818" points="472.5,384.457,482.5,388.457,472.5,392.457,476.5,388.457" style="stroke:#181818;stroke-width:1.0;"/><line style="stroke:#181818;stroke-width:1.0;" x1="345.5" x2="478.5" y1="388.457" y2="388.457"/><text fill="#000000" font-family="monospace" font-size="13" lengthAdjust="spacing" textLength="80" x="352.5" y="383.3911">Validate()</text><path d="M499,361.7578 L499,401.7578 L745,401.7578 L745,371.7578 L735,361.7578 L499,361.7578 " fill="#FEFFDD" style="stroke:#181818;stroke-width:0.5;"/><path d="M735,361.7578 L735,371.7578 L745,371.7578 L735,361.7578 " fill="#FEFFDD" style="stroke:#181818;stroke-width:0.5;"/><text fill="#000000" font-family="sans-serif" font-size="13" lengthAdjust="spacing" textLength="225" x="505" y="378.8247">Container / list: Forward to children.</text><text fill="#000000" font-family="sans-serif" font-size="13" lengthAdjust="spacing" textLength="191" x="505" y="393.9575">Leaf / leaf-list: Validate cache.</text><polygon fill="#181818" points="356.5,424.1563,346.5,428.1563,356.5,432.1563,352.5,428.1563" style="stroke:#181818;stroke-width:1.0;"/><line style="stroke:#181818;stroke-width:1.0;stroke-dasharray:2.0,2.0;" x1="350.5" x2="488.5" y1="428.1563" y2="428.1563"/><text fill="#000000" font-family="sans-serif" font-size="13" lengthAdjust="spacing" textLength="97" x="362.5" y="423.0903">Success status</text><polygon fill="#181818" points="207.5,460.2891,197.5,464.2891,207.5,468.2891,203.5,464.2891" style="stroke:#181818;stroke-width:1.0;"/><line style="stroke:#181818;stroke-width:1.0;stroke-dasharray:2.0,2.0;" x1="201.5" x2="339.5" y1="464.2891" y2="464.2891"/><text fill="#000000" font-family="sans-serif" font-size="13" lengthAdjust="spacing" textLength="97" x="213.5" y="459.2231">Success status</text><polygon fill="#181818" points="323.5,489.4219,333.5,493.4219,323.5,497.4219,327.5,493.4219" style="stroke:#181818;stroke-width:1.0;"/><line style="stroke:#181818;stroke-width:1.0;" x1="196.5" x2="329.5" y1="493.4219" y2="493.4219"/><text fill="#000000" font-family="monospace" font-size="13" lengthAdjust="spacing" textLength="56" x="203.5" y="488.356">Store()</text><path d="M289.5,508.4219 L366.5,508.4219 L366.5,515.5547 L356.5,525.5547 L289.5,525.5547 L289.5,508.4219 " fill="#EEEEEE" style="stroke:#000000;stroke-width:1.5;"/><rect fill="none" height="96.5313" style="stroke:#000000;stroke-width:1.5;" width="478" x="289.5" y="508.4219"/><text fill="#000000" font-family="sans-serif" font-size="13" font-weight="bold" lengthAdjust="spacing" textLength="32" x="304.5" y="521.4888">loop</text><text fill="#000000" font-family="sans-serif" font-size="11" font-weight="bold" lengthAdjust="spacing" textLength="62" x="381.5" y="520.6323">[children]</text><polygon fill="#181818" points="472.5,553.2539,482.5,557.2539,472.5,561.2539,476.5,557.2539" style="stroke:#181818;stroke-width:1.0;"/><line style="stroke:#181818;stroke-width:1.0;" x1="345.5" x2="478.5" y1="557.2539" y2="557.2539"/><text fill="#000000" font-family="monospace" font-size="13" lengthAdjust="spacing" textLength="56" x="352.5" y="552.188">Store()</text><path d="M499,530.5547 L499,570.5547 L762,570.5547 L762,540.5547 L752,530.5547 L499,530.5547 " fill="#FEFFDD" style="stroke:#181818;stroke-width:0.5;"/><path d="M752,530.5547 L752,540.5547 L762,540.5547 L752,530.5547 " fill="#FEFFDD" style="stroke:#181818;stroke-width:0.5;"/><text fill="#000000" font-family="sans-serif" font-size="13" lengthAdjust="spacing" textLength="225" x="505" y="547.6216">Container / list: Forward to children.</text><text fill="#000000" font-family="sans-serif" font-size="13" lengthAdjust="spacing" textLength="242" x="505" y="562.7544">Leaf / leaf-list: Apply cache to system.</text><polygon fill="#181818" points="356.5,592.9531,346.5,596.9531,356.5,600.9531,352.5,596.9531" style="stroke:#181818;stroke-width:1.0;"/><line style="stroke:#181818;stroke-width:1.0;stroke-dasharray:2.0,2.0;" x1="350.5" x2="488.5" y1="596.9531" y2="596.9531"/><text fill="#000000" font-family="sans-serif" font-size="13" lengthAdjust="spacing" textLength="97" x="362.5" y="591.8872">Success status</text><polygon fill="#181818" points="207.5,629.0859,197.5,633.0859,207.5,637.0859,203.5,633.0859" style="stroke:#181818;stroke-width:1.0;"/><line style="stroke:#181818;stroke-width:1.0;stroke-dasharray:2.0,2.0;" x1="201.5" x2="339.5" y1="633.0859" y2="633.0859"/><text fill="#000000" font-family="sans-serif" font-size="13" lengthAdjust="spacing" textLength="97" x="213.5" y="628.02">Success status</text><line style="stroke:#000000;stroke-width:1.0;stroke-dasharray:2.0,2.0;" x1="138.5" x2="807.5" y1="642.0859" y2="642.0859"/><text fill="#000000" font-family="sans-serif" font-size="11" font-weight="bold" lengthAdjust="spacing" textLength="105" x="143.5" y="652.2964">[event == Done]</text><polygon fill="#181818" points="323.5,673.0234,333.5,677.0234,323.5,681.0234,327.5,677.0234" style="stroke:#181818;stroke-width:1.0;"/><line style="stroke:#181818;stroke-width:1.0;" x1="196.5" x2="329.5" y1="677.0234" y2="677.0234"/><text fill="#000000" font-family="monospace" font-size="13" lengthAdjust="spacing" textLength="80" x="203.5" y="671.9575">Finalize()</text><path d="M289.5,692.0234 L366.5,692.0234 L366.5,699.1563 L356.5,709.1563 L289.5,709.1563 L289.5,692.0234 " fill="#EEEEEE" style="stroke:#000000;stroke-width:1.5;"/><rect fill="none" height="81.3984" style="stroke:#000000;stroke-width:1.5;" width="461" x="289.5" y="692.0234"/><text fill="#000000" font-family="sans-serif" font-size="13" font-weight="bold" lengthAdjust="spacing" textLength="32" x="304.5" y="705.0903">loop</text><text fill="#000000" font-family="sans-serif" font-size="11" font-weight="bold" lengthAdjust="spacing" textLength="62" x="381.5" y="704.2339">[children]</text><polygon fill="#181818" points="472.5,736.8555,482.5,740.8555,472.5,744.8555,476.5,740.8555" style="stroke:#181818;stroke-width:1.0;"/><line style="stroke:#181818;stroke-width:1.0;" x1="345.5" x2="478.5" y1="740.8555" y2="740.8555"/><text fill="#000000" font-family="monospace" font-size="13" lengthAdjust="spacing" textLength="80" x="352.5" y="735.7896">Finalize()</text><path d="M499,714.1563 L499,754.1563 L745,754.1563 L745,724.1563 L735,714.1563 L499,714.1563 " fill="#FEFFDD" style="stroke:#181818;stroke-width:0.5;"/><path d="M735,714.1563 L735,724.1563 L745,724.1563 L735,714.1563 " fill="#FEFFDD" style="stroke:#181818;stroke-width:0.5;"/><text fill="#000000" font-family="sans-serif" font-size="13" lengthAdjust="spacing" textLength="225" x="505" y="731.2231">Container / list: Forward to children.</text><text fill="#000000" font-family="sans-serif" font-size="13" lengthAdjust="spacing" textLength="189" x="505" y="746.356">Leaf / leaf-list: Delete backup.</text><polygon fill="#181818" points="356.5,761.4219,346.5,765.4219,356.5,769.4219,352.5,765.4219" style="stroke:#181818;stroke-width:1.0;"/><line style="stroke:#181818;stroke-width:1.0;stroke-dasharray:2.0,2.0;" x1="350.5" x2="488.5" y1="765.4219" y2="765.4219"/><polygon fill="#181818" points="207.5,782.4219,197.5,786.4219,207.5,790.4219,203.5,786.4219" style="stroke:#181818;stroke-width:1.0;"/><line style="stroke:#181818;stroke-width:1.0;stroke-dasharray:2.0,2.0;" x1="201.5" x2="339.5" y1="786.4219" y2="786.4219"/><line style="stroke:#000000;stroke-width:1.0;stroke-dasharray:2.0,2.0;" x1="138.5" x2="807.5" y1="795.4219" y2="795.4219"/><text fill="#000000" font-family="sans-serif" font-size="11" font-weight="bold" lengthAdjust="spacing" textLength="106" x="143.5" y="805.6323">[event == Abort]</text><polygon fill="#181818" points="323.5,826.3594,333.5,830.3594,323.5,834.3594,327.5,830.3594" style="stroke:#181818;stroke-width:1.0;"/><line style="stroke:#181818;stroke-width:1.0;" x1="196.5" x2="329.5" y1="830.3594" y2="830.3594"/><text fill="#000000" font-family="monospace" font-size="13" lengthAdjust="spacing" textLength="64" x="203.5" y="825.2935">Revert()</text><path d="M289.5,845.3594 L366.5,845.3594 L366.5,852.4922 L356.5,862.4922 L289.5,862.4922 L289.5,845.3594 " fill="#EEEEEE" style="stroke:#000000;stroke-width:1.5;"/><rect fill="none" height="81.3984" style="stroke:#000000;stroke-width:1.5;" width="508" x="289.5" y="845.3594"/><text fill="#000000" font-family="sans-serif" font-size="13" font-weight="bold" lengthAdjust="spacing" textLength="32" x="304.5" y="858.4263">loop</text><text fill="#000000" font-family="sans-serif" font-size="11" font-weight="bold" lengthAdjust="spacing" textLength="62" x="381.5" y="857.5698">[children]</text><polygon fill="#181818" points="472.5,890.1914,482.5,894.1914,472.5,898.1914,476.5,894.1914" style="stroke:#181818;stroke-width:1.0;"/><line style="stroke:#181818;stroke-width:1.0;" x1="345.5" x2="478.5" y1="894.1914" y2="894.1914"/><text fill="#000000" font-family="monospace" font-size="13" lengthAdjust="spacing" textLength="64" x="352.5" y="889.1255">Revert()</text><path d="M499,867.4922 L499,907.4922 L792,907.4922 L792,877.4922 L782,867.4922 L499,867.4922 " fill="#FEFFDD" style="stroke:#181818;stroke-width:0.5;"/><path d="M782,867.4922 L782,877.4922 L792,877.4922 L782,867.4922 " fill="#FEFFDD" style="stroke:#181818;stroke-width:0.5;"/><text fill="#000000" font-family="sans-serif" font-size="13" lengthAdjust="spacing" textLength="225" x="505" y="884.5591">Container / list: Forward to children.</text><text fill="#000000" font-family="sans-serif" font-size="13" lengthAdjust="spacing" textLength="272" x="505" y="899.6919">Leaf / leaf-list: Restore cache from backup.</text><polygon fill="#181818" points="356.5,914.7578,346.5,918.7578,356.5,922.7578,352.5,918.7578" style="stroke:#181818;stroke-width:1.0;"/><line style="stroke:#181818;stroke-width:1.0;stroke-dasharray:2.0,2.0;" x1="350.5" x2="488.5" y1="918.7578" y2="918.7578"/><polygon fill="#181818" points="207.5,935.7578,197.5,939.7578,207.5,943.7578,203.5,939.7578" style="stroke:#181818;stroke-width:1.0;"/><line style="stroke:#181818;stroke-width:1.0;stroke-dasharray:2.0,2.0;" x1="201.5" x2="339.5" y1="939.7578" y2="939.7578"/><polygon fill="#181818" points="323.5,964.8906,333.5,968.8906,323.5,972.8906,327.5,968.8906" style="stroke:#181818;stroke-width:1.0;"/><line style="stroke:#181818;stroke-width:1.0;" x1="196.5" x2="329.5" y1="968.8906" y2="968.8906"/><text fill="#000000" font-family="monospace" font-size="13" lengthAdjust="spacing" textLength="56" x="203.5" y="963.8247">Store()</text><path d="M289.5,983.8906 L366.5,983.8906 L366.5,991.0234 L356.5,1001.0234 L289.5,1001.0234 L289.5,983.8906 " fill="#EEEEEE" style="stroke:#000000;stroke-width:1.5;"/><rect fill="none" height="96.5313" style="stroke:#000000;stroke-width:1.5;" width="478" x="289.5" y="983.8906"/><text fill="#000000" font-family="sans-serif" font-size="13" font-weight="bold" lengthAdjust="spacing" textLength="32" x="304.5" y="996.9575">loop</text><text fill="#000000" font-family="sans-serif" font-size="11" font-weight="bold" lengthAdjust="spacing" textLength="62" x="381.5" y="996.1011">[children]</text><polygon fill="#181818" points="472.5,1028.7227,482.5,1032.7227,472.5,1036.7227,476.5,1032.7227" style="stroke:#181818;stroke-width:1.0;"/><line style="stroke:#181818;stroke-width:1.0;" x1="345.5" x2="478.5" y1="1032.7227" y2="1032.7227"/><text fill="#000000" font-family="monospace" font-size="13" lengthAdjust="spacing" textLength="56" x="352.5" y="1027.6567">Store()</text><path d="M499,1006.0234 L499,1046.0234 L762,1046.0234 L762,1016.0234 L752,1006.0234 L499,1006.0234 " fill="#FEFFDD" style="stroke:#181818;stroke-width:0.5;"/><path d="M752,1006.0234 L752,1016.0234 L762,1016.0234 L752,1006.0234 " fill="#FEFFDD" style="stroke:#181818;stroke-width:0.5;"/><text fill="#000000" font-family="sans-serif" font-size="13" lengthAdjust="spacing" textLength="225" x="505" y="1023.0903">Container / list: Forward to children.</text><text fill="#000000" font-family="sans-serif" font-size="13" lengthAdjust="spacing" textLength="242" x="505" y="1038.2231">Leaf / leaf-list: Apply cache to system.</text><polygon fill="#181818" points="356.5,1068.4219,346.5,1072.4219,356.5,1076.4219,352.5,1072.4219" style="stroke:#181818;stroke-width:1.0;"/><line style="stroke:#181818;stroke-width:1.0;stroke-dasharray:2.0,2.0;" x1="350.5" x2="488.5" y1="1072.4219" y2="1072.4219"/><text fill="#000000" font-family="sans-serif" font-size="13" lengthAdjust="spacing" textLength="97" x="362.5" y="1067.356">Success status</text><polygon fill="#181818" points="207.5,1104.5547,197.5,1108.5547,207.5,1112.5547,203.5,1108.5547" style="stroke:#181818;stroke-width:1.0;"/><line style="stroke:#181818;stroke-width:1.0;stroke-dasharray:2.0,2.0;" x1="201.5" x2="339.5" y1="1108.5547" y2="1108.5547"/><text fill="#000000" font-family="sans-serif" font-size="13" lengthAdjust="spacing" textLength="97" x="213.5" y="1103.4888">Success status</text><polygon fill="#181818" points="323.5,1133.6875,333.5,1137.6875,323.5,1141.6875,327.5,1137.6875" style="stroke:#181818;stroke-width:1.0;"/><line style="stroke:#181818;stroke-width:1.0;" x1="196.5" x2="329.5" y1="1137.6875" y2="1137.6875"/><text fill="#000000" font-family="monospace" font-size="13" lengthAdjust="spacing" textLength="80" x="203.5" y="1132.6216">Finalize()</text><path d="M289.5,1152.6875 L366.5,1152.6875 L366.5,1159.8203 L356.5,1169.8203 L289.5,1169.8203 L289.5,1152.6875 " fill="#EEEEEE" style="stroke:#000000;stroke-width:1.5;"/><rect fill="none" height="81.3984" style="stroke:#000000;stroke-width:1.5;" width="461" x="289.5" y="1152.6875"/><text fill="#000000" font-family="sans-serif" font-size="13" font-weight="bold" lengthAdjust="spacing" textLength="32" x="304.5" y="1165.7544">loop</text><text fill="#000000" font-family="sans-serif" font-size="11" font-weight="bold" lengthAdjust="spacing" textLength="62" x="381.5" y="1164.8979">[children]</text><polygon fill="#181818" points="472.5,1197.5195,482.5,1201.5195,472.5,1205.5195,476.5,1201.5195" style="stroke:#181818;stroke-width:1.0;"/><line style="stroke:#181818;stroke-width:1.0;" x1="345.5" x2="478.5" y1="1201.5195" y2="1201.5195"/><text fill="#000000" font-family="monospace" font-size="13" lengthAdjust="spacing" textLength="80" x="352.5" y="1196.4536">Finalize()</text><path d="M499,1174.8203 L499,1214.8203 L745,1214.8203 L745,1184.8203 L735,1174.8203 L499,1174.8203 " fill="#FEFFDD" style="stroke:#181818;stroke-width:0.5;"/><path d="M735,1174.8203 L735,1184.8203 L745,1184.8203 L735,1174.8203 " fill="#FEFFDD" style="stroke:#181818;stroke-width:0.5;"/><text fill="#000000" font-family="sans-serif" font-size="13" lengthAdjust="spacing" textLength="225" x="505" y="1191.8872">Container / list: Forward to children.</text><text fill="#000000" font-family="sans-serif" font-size="13" lengthAdjust="spacing" textLength="189" x="505" y="1207.02">Leaf / leaf-list: Delete backup.</text><polygon fill="#181818" points="356.5,1222.0859,346.5,1226.0859,356.5,1230.0859,352.5,1226.0859" style="stroke:#181818;stroke-width:1.0;"/><line style="stroke:#181818;stroke-width:1.0;stroke-dasharray:2.0,2.0;" x1="350.5" x2="488.5" y1="1226.0859" y2="1226.0859"/><polygon fill="#181818" points="207.5,1243.0859,197.5,1247.0859,207.5,1251.0859,203.5,1247.0859" style="stroke:#181818;stroke-width:1.0;"/><line style="stroke:#181818;stroke-width:1.0;stroke-dasharray:2.0,2.0;" x1="201.5" x2="339.5" y1="1247.0859" y2="1247.0859"/><polygon fill="#181818" points="50.5,1279.2188,40.5,1283.2188,50.5,1287.2188,46.5,1283.2188" style="stroke:#181818;stroke-width:1.0;"/><line style="stroke:#181818;stroke-width:1.0;stroke-dasharray:2.0,2.0;" x1="44.5" x2="190.5" y1="1283.2188" y2="1283.2188"/><text fill="#000000" font-family="sans-serif" font-size="13" lengthAdjust="spacing" textLength="97" x="56.5" y="1278.1528">Success status</text><!--SRC=[xLTDJ-Cm4BtxLunoAeV27Gaar1QnKfUkaWM9et46QgrhMxOBWb-_Thu8ZPE2e5ANPIwLElFcZVsUnegcnd76DPKE4lja3MgL0BMGtMJfxDU2w7R1IkLhWKN-vs9wDP-zJXkb74YLbnNfOl6RC2K4CiULj92m9HUvGLca9nS_vjDqTab8HGNZqwhhCII-bifxd50XRYdxCpf84aAeR_H07TRau8CA1_Y0dlxa12O5Y1I9448f3MKds_mPecmG6CEKWIz3T-ad7vNLWQvTtp0NXuADg6ZAmtMo8G8iiDM7tixOOMxkArObbQym_7xfekaG4oKTvH8D787WrXt3kJAFrEJWL3FyOIzyZlGk8FtFk8HVwJpCnIXROXo7CYycYoRhyy2uKI5RCuRMWdNKhMqKbUFs2_6qf7lvBNSDyBJwlv8wz2JzxhccWeVR6BLbx3VDi65YPeaIlDqZM_pn0MzqVL6FskUCNbUytn7RtD1smbjTiEc00TKpfypk9Ezstq-zpxGMJwNO0UuV4OUhho4x2eilhyjKIHoompcNtlhFktD4b60_JJ55WPujlDrh_H4pVARuxn7xx5OPDwHswakDsvdMaVRxgNIADYogQW7S6RNwfrJ_tkp_vMR_tk1VSODNm5fO3wk-BJlcQE6hpkGl]--></g></svg>